<svg width="16" height="15" viewBox="0 0 16 15" fill="none" xmlns="http://www.w3.org/2000/svg">
<path d="M13.5 6.5C13.5 10.0899 10.5899 13 7 13C3.41015 13 0.5 10.0899 0.5 6.5C0.5 2.91015 3.41015 0 7 0C10.5899 0 13.5 2.91015 13.5 6.5Z" fill="white" fill-opacity="0.2"/>
<path fill-rule="evenodd" clip-rule="evenodd" d="M7 11C9.48528 11 11.5 8.98528 11.5 6.5C11.5 4.01472 9.48528 2 7 2C4.51472 2 2.5 4.01472 2.5 6.5C2.5 8.98528 4.51472 11 7 11ZM7 13C10.5899 13 13.5 10.0899 13.5 6.5C13.5 2.91015 10.5899 0 7 0C3.41015 0 0.5 2.91015 0.5 6.5C0.5 10.0899 3.41015 13 7 13Z" fill="white"/>
<path d="M10.5605 9.35355C10.7558 9.15829 11.0724 9.15829 11.2676 9.35355L14.8031 12.8891C14.9984 13.0843 14.9984 13.4009 14.8031 13.5962L14.096 14.3033C13.9008 14.4986 13.5842 14.4986 13.3889 14.3033L9.8534 10.7678C9.65814 10.5725 9.65814 10.2559 9.8534 10.0607L10.5605 9.35355Z" fill="white"/>
</svg>
